<?xml version="1.0" encoding="UTF-8"?>
<svg id="Layer_2" data-name="Layer 2" xmlns="http://www.w3.org/2000/svg" viewBox="0 0 4402.4 2420.02">
  <defs>
    <style>
      .cls-1 {
        fill: #d1d3d3;
      }

      .cls-1, .cls-2, .cls-3, .cls-4, .cls-5 {
        stroke-width: 0px;
      }

      .cls-2, .cls-6 {
        fill: #1f4b4c;
      }

      .cls-3 {
        fill: #073739;
      }

      .cls-4 {
        fill: #d0d2d2;
      }

      .cls-6 {
        font-family: Rubik-Bold, Rubik;
        font-size: 210px;
        font-weight: 700;
        letter-spacing: .07em;
      }

      .cls-5 {
        fill: #467276;
      }
    </style>
  </defs>
  <g id="Layer_1-2" data-name="Layer 1">
    <path class="cls-4" d="m1009.67,1377.76c123.47,63.69,463.73,69.3,530.48-115.21,59.55,101.83,43.16,218.17-29.25,318.11-90.78-17.67-213.61,104.21-306.06,51.59,11.04-2.81,144.72-50.65,155.62-76.95.86-5.16-1.72-13.32-17.19-2.15-58.48,49.45-223.83,70.76-260.51-22.35,2.01,6.04,169.04,6.43,181.12-14.34,3.44-4,6.3-13.75-6.31-11.45-78.72,24.15-255.21-22.4-247.9-127.25Z"/>
    <path class="cls-5" d="m1489.84,652.97s10.76,12.89,16.5,3.72c5.73-9.17-16.05-25.79-52.16-117.5-36.11-91.71-38.98-118.07-40.7-160.49-1.72-42.42,10.89-45.28,20.06-20.63,12.86,35.01,125.22,282.4,158.77,315.83,37.49,5.61,12.29-31.32-14.32-80.25-16.58-26.2-183.1-319.29-124.95-358.23,21.21-23.51,22.35-15.48,33.82,17.76,2.63,19.74,88.04,211.13,101.45,228.69,24.83,18.25,34.74-10.07,17.2-38.4-12.04-20.06-61.33-103.75-84.26-163.36-22.93-59.61-32.67-91.14-29.23-124.95,3.44-33.82,10.31-49.29,21.78-54.45,11.47-5.16,13.19,11.46,25.8,53.31,9.91,46.97,137.6,314.16,176.54,355.95,10.32,4.58,14.33.57,16.05-11.46s-16.62-37.83-52.73-102.6c-36.11-64.77-68.78-131.83-93.43-196.6-34.58-80.12-55.94-156.45.58-197.18,12.03-8.02,13.75,8.03,16.62,25.22,28.95,116.85,138.39,306.75,208.64,438.48,45.69,73.79,84.93,174.35,99.16,122.09-22.6-83.57-90.75-259.71,41.27-314.1,5.73,0,1.71,22.93,4.01,49.29,2.29,26.37,19.49,119.79,44.13,171.38,38.16,68.56,47.06,184.43,49.29,236.72,0,0-41.84,29.81-84.26,64.77-42.42,34.96-55.41,50.65-55.41,50.65l-78.14,54.24c-83.64-47.04-265.57-186.76-342.06-247.9Z"/>
    <path class="cls-2" d="m1543.59,1576.36c81.22-112.2,99.57-298.4-74.82-413.54-118.97-91.82-332.15-260.88-372.27-388.62-9.45-44.71,13.76-9.46,41.27,17.19,52.52,50.84,219.67,190.98,274.26,234.72,147.54,13.71-441.09-319.86-318.97-424.73,36.94,34.07,324.61,336.91,369.7,309.53,10.32-13.76,10.32-15.48-17.19-37.84-93.51-88.78-356.08-253.78-366.91-395.49,2.37-30.1,16.12-32.68,33.32-7.75,34.05,59.86,287.97,286.27,349.93,324.99,18.91,13.76,27.51,12.9,34.38,0,6.88-12.9,7.74-12.9-39.55-49.87-69.41-56.88-319.77-254-345.63-345.62-12.03-48.15.86-79.1,11.18-83.4s26.65,17.2,64.48,62.76c30.75,58.23,452.17,400.96,511.14,433.75,42.48,1.87,13.49-32.54-12.9-65.33-21.06-27.08-85.83-101.31-93.28-150.03-7.45-48.72-2.29-87.12,19.49-123.23,21.78-36.11,21.78-22.35,21.78-22.35,45.46,129.11,268.25,303.66,317.26,494.38,99.33,370.53-106.86,526.1-406.67,630.48Z"/>
    <path class="cls-1" d="m1916.73,1381.2s74.37-82.97,81.25-193.02c6.88-110.05,3.01-137.99-4.3-189.15s-30.37-111.34-34.53-120.37c-4.16-9.03-7.6-14.19-7.6-14.19,0,0,76.09-81.68,108.76-101.45,32.67-19.77,64.48-36.11,106.18-20.63,41.7,15.48,84.69,60.18,102.31,69.64s44.28,13.76,52.02,14.19c7.74.43,7.31,6.88-2.15,9.89-9.46,3.01-76.09,42.13-102.74,77.81-26.65,35.68-61.9,95-97.58,165.94-35.68,70.93-73.51,144.44-106.18,193.45-32.67,49.01-95.43,107.9-95.43,107.9Z"/>
    <g id="CLAPS">
      <g>
        <path class="cls-3" d="m355.93,2109.63c-51.09,0-98.31-9.58-141.67-28.74-43.36-19.16-81.01-45.37-112.93-78.65-31.93-33.27-56.81-72.76-74.61-118.48-17.82-45.7-26.72-95.11-26.72-148.22s8.9-102.85,26.72-147.21c17.8-44.37,42.68-82.18,74.61-113.43,31.92-31.26,69.57-55.46,112.93-72.6,43.36-17.14,90.57-25.71,141.67-25.71h397.27v128.05h-397.27c-32.94,0-63.37,5.89-91.25,17.65-27.9,11.77-51.93,28.08-72.09,48.9-20.17,20.84-35.97,45.72-47.39,74.61-11.44,28.91-17.14,60.85-17.14,95.79s5.7,66.22,17.14,95.79c11.42,29.59,27.22,54.95,47.39,76.13,20.17,21.17,44.19,37.81,72.09,49.91,27.89,12.1,58.31,18.15,91.25,18.15h397.27v128.05h-397.27Z"/>
        <path class="cls-3" d="m859.07,2109.63v-733.04h128.05v604.98h493.06v128.05h-621.12Z"/>
        <path class="cls-3" d="m2338.24,2109.63l-109.9-184.52h-346.86l60.5-103.86h224.85l-163.35-274.26-332.74,562.63h-146.2l421.47-701.78c7.39-12.76,16.13-22.84,26.22-30.25,10.08-7.39,22.18-11.09,36.3-11.09s26.04,3.7,35.79,11.09c9.74,7.4,18.31,17.49,25.71,30.25l422.48,701.78h-154.27Z"/>
        <path class="cls-3" d="m2793.99,1905.95v-124.02h294.42c45.03,0,80.16-12.76,105.37-38.32,25.21-25.54,37.81-59.14,37.81-100.83s-12.6-75.95-37.81-100.83c-25.21-24.86-60.34-37.31-105.37-37.31h-388.2v604.98h-127.05v-733.04h515.24c42.35,0,80.16,6.22,113.43,18.65,33.27,12.45,61.33,29.92,84.19,52.43,22.85,22.53,40.33,49.91,52.43,82.18,12.1,32.27,18.15,68.56,18.15,108.9s-6.05,75.8-18.15,108.39c-12.1,32.61-29.59,60.67-52.43,84.19-22.86,23.54-50.92,41.85-84.19,54.95-33.27,13.11-71.09,19.66-113.43,19.66h-294.42Z"/>
        <path class="cls-3" d="m3449.38,2109.63v-128.05h549.53c34.28,0,60.66-8.73,79.15-26.22,18.48-17.47,27.73-40.66,27.73-69.57,0-31.59-9.25-55.28-27.73-71.09-18.5-15.79-44.87-23.69-79.15-23.69h-336.77c-34.28,0-65.38-5.2-93.27-15.63-27.9-10.41-51.42-24.86-70.58-43.36-19.16-18.48-33.95-40.49-44.37-66.04-10.43-25.54-15.63-53.44-15.63-83.69s4.87-56.97,14.62-82.18c9.74-25.21,24.2-46.89,43.36-65.04,19.16-18.15,42.85-32.42,71.09-42.85,28.23-10.41,60.5-15.63,96.8-15.63h526.34v128.05h-526.34c-29.59,0-52.43,7.91-68.57,23.69-16.13,15.8-24.2,37.81-24.2,66.04s8.22,50.08,24.7,65.54c16.46,15.47,38.82,23.19,67.05,23.19h335.77c74.61,0,131.24,17.49,169.9,52.43,38.65,34.96,57.98,88.07,57.98,159.31,0,30.93-4.71,59.49-14.12,85.71-9.42,26.22-23.54,48.9-42.35,68.06-18.83,19.16-42.52,34.13-71.09,44.87-28.58,10.76-62.01,16.13-100.33,16.13h-549.53Z"/>
      </g>
    </g>
    <g id="TAG_LINE" data-name="TAG LINE">
      <path class="cls-1" d="m378.81,2385.48v31.11h-93.52v-134.42h36.87v103.31h56.65Z"/>
      <path class="cls-1" d="m573.33,2385.48v31.11h-100.43v-134.42h97.16v31.11h-60.49v20.55h54.53v31.11h-54.53v20.55h63.75Z"/>
      <path class="cls-1" d="m750,2392.78h-42.63l-8.26,23.81h-40.9l50.69-134.42h39.36l50.89,134.42h-40.9l-8.26-23.81Zm-10.95-31.11l-10.37-29.57-10.37,29.57h20.74Z"/>
      <path class="cls-1" d="m938,2373.39h-13.44v43.2h-36.68v-134.42h55.11c32.45,0,52.61,19.97,52.61,45.51,0,16.13-7.87,29.96-21.7,38.02l29.38,50.89h-40.32l-24.96-43.2Zm-13.44-31.11h17.09c15.75,0,20.74-5.95,20.74-14.59s-4.99-14.4-20.74-14.4h-17.09v29Z"/>
      <path class="cls-1" d="m1126.18,2282.18l46.66,71.24v-71.24h36.87v134.42h-32.64l-46.66-71.43v71.43h-36.87v-134.42h32.64Z"/>
      <path class="cls-1" d="m1676.33,2282.18l-51.65,134.42h-40.13l-22.66-69.9-22.47,69.9h-40.32l-51.46-134.42h43.21l26.88,82.76,23.81-82.76h40.9l23.81,82.76,26.88-82.76h43.21Z"/>
      <path class="cls-1" d="m1799.62,2282.18v134.42h-36.68v-134.42h36.68Z"/>
      <path class="cls-1" d="m2005.28,2313.28h-39.36v103.31h-36.68v-103.31h-39.36v-31.11h115.41v31.11Z"/>
      <path class="cls-1" d="m2215.93,2282.18v134.42h-36.68v-51.65h-45.12v51.65h-36.68v-134.42h36.68v51.65h45.12v-51.65h36.68Z"/>
      <path class="cls-1" d="m2452.7,2349.38c0,38.79-33.41,70.09-72.2,70.09s-72.39-31.3-72.39-70.09,33.6-70.28,72.39-70.28,72.2,31.49,72.2,70.28Zm-35.33,0c0-20.35-16.51-36.87-36.87-36.87s-36.87,16.51-36.87,36.87,16.51,36.68,36.87,36.68,36.87-16.32,36.87-36.68Z"/>
      <path class="cls-1" d="m2663.35,2282.18v79.5c0,38.6-26.88,57.8-59.33,57.8s-59.14-19.2-59.14-57.8v-79.5h36.68v80.65c0,16.13,9.98,24.39,22.47,24.39s22.47-8.26,22.47-24.39v-80.65h36.87Z"/>
      <path class="cls-1" d="m2867.09,2313.28h-39.36v103.31h-36.68v-103.31h-39.36v-31.11h115.4v31.11Z"/>
      <path class="cls-1" d="m3198.53,2385.48v31.11h-93.51v-134.42h36.87v103.31h56.65Z"/>
      <path class="cls-1" d="m3371.35,2392.78h-42.63l-8.26,23.81h-40.9l50.69-134.42h39.36l50.89,134.42h-40.9l-8.26-23.81Zm-10.95-31.11l-10.37-29.57-10.37,29.57h20.74Z"/>
      <path class="cls-1" d="m3616.95,2329.8c0,25.73-19.97,47.81-52.42,47.81h-18.43v38.98h-36.87v-134.42h55.3c32.45,0,52.42,21.89,52.42,47.62Zm-33.22,0c0-8.45-4.8-16.51-20.55-16.51h-17.09v33.22h17.09c15.75,0,20.55-8.26,20.55-16.71Z"/>
      <path class="cls-1" d="m3812.05,2380.3c-2.88,38.02-41.09,41.48-63.17,39.17-20.55-2.11-40.13-11.14-51.27-19.39l16.9-27.84c15.17,17.28,54.73,23.23,57.8,8.45,5.18-24.19-71.24-11.33-64.71-64.9,2.5-19.97,17.09-38.98,58.18-36.68,26.12,1.54,38.98,10.75,41.86,13.06l-13.06,28.8c-12.29-11.71-46.66-18.43-49.93-2.69-4.42,20.74,70.86,13.63,67.4,62.02Z"/>
      <path class="cls-1" d="m4006.76,2385.48v31.11h-100.43v-134.42h97.16v31.11h-60.49v20.55h54.53v31.11h-54.53v20.55h63.75Z"/>
    </g>
    <text class="cls-6" transform="translate(4217.81 1330.38)"><tspan x="0" y="0">®</tspan></text>
  </g>
</svg>